<?xml version="1.0" standalone="no"?>
<!DOCTYPE svg PUBLIC "-//W3C//DTD SVG 20010904//EN"
 "http://www.w3.org/TR/2001/REC-SVG-20010904/DTD/svg10.dtd">
<svg version="1.0" xmlns="http://www.w3.org/2000/svg"
 width="500.000000pt" height="500.000000pt" viewBox="0 0 500.000000 500.000000"
 preserveAspectRatio="xMidYMid meet">
<metadata>
Created by potrace 1.14, written by Peter Selinger 2001-2017
</metadata>
<g transform="translate(0.000000,500.000000) scale(0.100000,-0.100000)"
fill="#000000" stroke="none">
<path d="M3662 4466 c-7 -36 -21 -85 -31 -109 -30 -70 -1688 -3074 -1747
-3164 -62 -96 -182 -225 -271 -292 -72 -53 -181 -103 -292 -133 -110 -29 -304
-29 -425 0 -102 25 -235 85 -307 138 -27 19 -49 31 -49 25 0 -29 67 -144 119
-204 70 -81 128 -126 218 -170 155 -77 223 -92 413 -91 139 1 164 3 243 27
162 50 264 114 395 251 45 47 106 123 136 168 71 110 1724 3109 1748 3172 31
80 39 140 28 218 -16 110 -75 199 -146 222 -19 6 -22 0 -32 -58z"/>
<path d="M1750 4424 c0 -36 -9 -103 -20 -148 -107 -443 -640 -2764 -640 -2786
0 -75 39 -108 100 -83 45 18 64 36 115 108 l44 61 287 1234 c166 716 288 1264
291 1305 6 76 -14 169 -48 237 -22 44 -83 114 -111 129 -17 9 -18 5 -18 -57z"/>
<path d="M4277 1107 c-8 -103 -41 -173 -116 -248 -73 -73 -135 -103 -238 -114
-65 -8 -164 12 -209 41 l-26 17 7 -39 c18 -100 123 -229 225 -277 36 -17 65
-21 145 -22 94 0 105 2 167 33 159 78 254 259 218 414 -22 93 -78 188 -141
237 l-26 20 -6 -62z"/>
</g>
</svg>
